<svg width="151" height="135" viewBox="0 0 151 135" fill="none" xmlns="http://www.w3.org/2000/svg">
    <path d="M75.5427 0.00262156C38.4147 0.00262156 8.20935 30.208 8.20935 67.336C8.20935 104.464 38.4147 134.669 75.5427 134.669C112.669 134.669 142.876 104.464 142.876 67.336C142.876 30.208 112.669 0.00262156 75.5427 0.00262156ZM75.5427 113.351C50.1693 113.351 29.528 92.708 29.528 67.336C29.528 41.964 50.1693 21.3213 75.5427 21.3213C100.915 21.3213 121.556 41.964 121.556 67.336C121.556 92.708 100.915 113.351 75.5427 113.351Z" fill="#C2B280"/>
    <path d="M75.5427 18.0027C48.3387 18.0027 26.2093 40.1333 26.2093 67.336C26.2093 94.5387 48.3387 116.669 75.5427 116.669C102.745 116.669 124.876 94.5387 124.876 67.336C124.876 40.1333 102.745 18.0027 75.5427 18.0027ZM75.5427 118.003C47.604 118.003 24.876 95.2734 24.876 67.336C24.876 39.3987 47.604 16.6693 75.5427 16.6693C103.48 16.6693 126.209 39.3987 126.209 67.336C126.209 95.2734 103.48 118.003 75.5427 118.003Z" fill="#3B3A39"/>
    <path d="M40.5307 112.377C40.1187 112.049 39.676 111.949 39.2027 112.077C38.7293 112.207 38.2707 112.549 37.8293 113.103C36.9107 114.253 36.8827 115.176 37.748 115.864C38.1107 116.155 38.6213 116.413 39.2827 116.644L38.5493 117.563C37.9853 117.401 37.44 117.112 36.9186 116.695C36.1666 116.095 35.7733 115.408 35.7387 114.635C35.7053 113.861 36.028 113.048 36.7093 112.196C37.1373 111.659 37.6093 111.267 38.128 111.019C38.6467 110.771 39.1733 110.685 39.712 110.761C40.2507 110.839 40.7667 111.073 41.2587 111.465C41.76 111.867 42.1667 112.391 42.48 113.036L41.416 113.645C41.296 113.4 41.1653 113.164 41.0253 112.94C40.8827 112.716 40.7187 112.528 40.5307 112.377Z" fill="white"/>
    <path d="M39.8186 118.728L43.5346 113.263L44.6933 114.051L40.9773 119.516L39.8186 118.728Z" fill="white"/>
    <path d="M47.7787 123.511L46.2213 122.645L46.1347 116.88L46.1 116.861C45.72 117.66 45.44 118.224 45.2573 118.553L43.748 121.273L42.6533 120.665L45.86 114.887L47.4053 115.744L47.5133 121.465L47.5413 121.48C47.9187 120.708 48.1933 120.167 48.3667 119.856L49.8827 117.12L50.9867 117.732L47.7787 123.511Z" fill="white"/>
    <path d="M53.2013 125.847L49.692 124.371L52.2533 118.279L55.7613 119.753L55.3173 120.812L53.1 119.88L52.5373 121.219L54.6013 122.084L54.156 123.143L52.0933 122.277L51.4333 123.848L53.6493 124.78L53.2013 125.847Z" fill="white"/>
    <path d="M57.6347 127.32L57.5266 121.897L57.488 121.887C57.2533 122.916 57.088 123.601 56.9906 123.94L56.148 126.896L54.944 126.552L56.7573 120.197L58.592 120.72L58.7093 126.009L58.7347 126.017L61.716 121.612L63.5506 122.135L61.7373 128.491L60.4827 128.132L61.34 125.124C61.38 124.981 61.4293 124.819 61.4866 124.635C61.544 124.451 61.704 123.964 61.9667 123.173L61.928 123.163L58.8693 127.672L57.6347 127.32Z" fill="white"/>
    <path d="M67.52 126.641C67.292 125.167 67.164 124.332 67.136 124.139C67.108 123.947 67.092 123.795 67.084 123.684C66.928 124.051 66.5053 124.952 65.8173 126.388L67.52 126.641ZM67.9213 129.479L67.6787 127.853L65.2947 127.499L64.5906 128.984L63.0973 128.761L66.38 122.541L68.0747 122.795L69.4147 129.701L67.9213 129.479Z" fill="white"/>
    <path d="M74.6226 126.405L75.084 126.412C75.5146 126.419 75.8373 126.34 76.0546 126.173C76.2706 126.007 76.3813 125.76 76.3866 125.435C76.392 125.107 76.308 124.861 76.1306 124.703C75.9533 124.543 75.6733 124.46 75.2906 124.455L74.6546 124.444L74.6226 126.405ZM77.8026 125.408C77.792 126.119 77.56 126.659 77.1093 127.028C76.6586 127.399 76.024 127.576 75.2053 127.563L74.6026 127.553L74.5653 129.904L73.164 129.88L73.2706 123.273L75.3813 123.307C76.184 123.32 76.7906 123.503 77.2026 123.853C77.6133 124.205 77.8146 124.724 77.8026 125.408Z" fill="white"/>
    <path d="M80.472 126.043L80.9227 126C81.3627 125.957 81.6814 125.853 81.8774 125.685C82.0734 125.519 82.156 125.276 82.1253 124.963C82.0947 124.649 81.9667 124.439 81.7387 124.327C81.512 124.216 81.1733 124.183 80.7227 124.225L80.3 124.267L80.472 126.043ZM80.5827 127.177L80.8253 129.701L79.432 129.836L78.7947 123.259L80.712 123.073C81.604 122.987 82.2827 123.084 82.7427 123.369C83.204 123.653 83.4653 124.127 83.5293 124.789C83.5667 125.176 83.4934 125.531 83.3107 125.853C83.1267 126.175 82.848 126.44 82.4747 126.648C83.6067 128.032 84.344 128.924 84.6867 129.328L83.1387 129.477L81.324 127.105L80.5827 127.177Z" fill="white"/>
    <path d="M89.636 128.355L85.9013 129.085L84.632 122.6L88.368 121.869L88.588 122.996L86.228 123.459L86.5067 124.883L88.7027 124.453L88.9226 125.579L86.7266 126.009L87.0533 127.683L89.4147 127.22L89.636 128.355Z" fill="white"/>
    <path d="M94.14 127.111L91.0293 122.668L90.9893 122.681C91.3706 123.667 91.6133 124.328 91.7226 124.663L92.6693 127.587L91.4787 127.972L89.4413 121.687L91.2573 121.097L94.3026 125.424L94.3266 125.415L94.3493 120.096L96.164 119.509L98.2 125.797L96.9573 126.199L95.9933 123.223C95.948 123.081 95.8973 122.919 95.8426 122.735C95.7866 122.551 95.6493 122.056 95.428 121.253L95.388 121.267L95.3613 126.716L94.14 127.111Z" fill="white"/>
    <path d="M100.092 124.921L97.4293 118.872L98.712 118.308L101.375 124.356L100.092 124.921Z" fill="white"/>
    <path d="M106.513 121.764L103.148 123.54L100.063 117.695L103.431 115.919L103.965 116.935L101.839 118.057L102.516 119.34L104.493 118.296L105.031 119.311L103.051 120.356L103.847 121.863L105.973 120.74L106.513 121.764Z" fill="white"/>
    <path d="M107.196 117.029L107.573 116.781C107.944 116.537 108.176 116.296 108.271 116.056C108.367 115.817 108.327 115.565 108.153 115.301C107.981 115.039 107.768 114.912 107.515 114.92C107.263 114.928 106.947 115.056 106.569 115.304L106.213 115.537L107.196 117.029ZM107.823 117.98L109.216 120.099L108.045 120.869L104.413 115.349L106.021 114.289C106.771 113.796 107.416 113.568 107.956 113.604C108.495 113.64 108.948 113.936 109.315 114.493C109.529 114.817 109.629 115.165 109.617 115.536C109.604 115.907 109.483 116.271 109.249 116.629C110.897 117.324 111.967 117.769 112.456 117.965L111.157 118.821L108.445 117.571L107.823 117.98Z" fill="white"/>
    <path d="M116.379 114.801L113.415 117.189L109.268 112.044L112.231 109.656L112.951 110.551L111.079 112.06L111.989 113.189L113.732 111.785L114.452 112.679L112.711 114.083L113.779 115.411L115.652 113.901L116.379 114.801Z" fill="white"/>
    <path d="M150.489 99.0813H0.594635V38.3413H150.489V99.0813Z" fill="white"/>
    <path d="M24.552 30.4187C24.552 30.4187 25.0987 30.5214 25.6427 30.6227C26.184 30.7307 26.724 30.8387 26.724 30.8387C26.724 30.8387 27.1307 30.4534 27.5373 30.0681C27.96 29.7001 28.3827 29.332 28.3827 29.332C28.3827 29.332 28.4147 29.8801 28.4453 30.4294C28.4747 30.9694 28.536 31.5227 28.536 31.5227L30.432 32.6081L28.4747 33.4481C28.4747 33.4481 28.3867 33.9734 28.2987 34.4987C28.2347 35.0307 28.1693 35.5627 28.1693 35.5627L26.6307 33.9974C26.6307 33.9974 26.092 34.0934 25.5533 34.1894C25.0093 34.2947 24.4653 34.3987 24.4653 34.3987L25.496 32.4054C25.496 32.4054 25.2573 31.9121 25.0187 31.4187C24.7853 30.9187 24.552 30.4187 24.552 30.4187Z" fill="white"/>
    <path d="M33.36 21.1254C33.36 21.1254 33.8733 21.332 34.384 21.5387C34.8907 21.7507 35.3973 21.9627 35.3973 21.9627C35.3973 21.9627 35.5147 21.8867 35.692 21.7733C35.8747 21.668 36.1173 21.528 36.3613 21.3854C36.8453 21.1054 37.3293 20.8254 37.3293 20.8254C37.3293 20.8254 37.2533 21.372 37.176 21.9187C37.108 22.46 37.04 23 37.04 23L38.688 24.4547C38.688 24.4547 38.556 24.4773 38.3587 24.5107C38.1573 24.5413 37.8947 24.5907 37.6387 24.6493C37.1173 24.7627 36.5973 24.8773 36.5973 24.8773C36.5973 24.8773 36.408 25.3773 36.2187 25.8787C36.0293 26.3707 35.868 26.8813 35.868 26.8813L34.6693 25.036C34.6693 25.036 34.1267 25.0253 33.5827 25.016C33.032 25.012 32.4814 25.008 32.4814 25.008C32.4814 25.008 32.8267 24.568 33.1747 24.1294C33.5147 23.68 33.892 23.2667 33.892 23.2667C33.892 23.2667 33.7573 22.7333 33.62 22.2013C33.4893 21.6627 33.36 21.1254 33.36 21.1254Z" fill="white"/>
    <path d="M43.8494 13.7773C43.8494 13.7773 44.3094 14.0813 44.768 14.3853C45.2227 14.6973 45.6787 15.0106 45.6787 15.0106L47.7987 14.2786C47.7987 14.2786 47.6147 14.8026 47.4333 15.3279C47.2587 15.8466 47.084 16.3653 47.084 16.3653L48.404 18.1186C48.404 18.1186 47.8707 18.1053 47.3347 18.0919C47.0627 18.0826 46.8 18.0919 46.6 18.0959C46.4 18.1013 46.2667 18.1039 46.2667 18.1039L45.152 19.9226L44.356 17.8866C44.356 17.8866 43.8187 17.7439 43.2827 17.6293C42.7467 17.5186 42.2107 17.4079 42.2107 17.4079C42.2107 17.4079 42.6307 17.0373 43.0627 16.6813C43.504 16.3359 43.9454 15.9919 43.9454 15.9919C43.9454 15.9919 43.9187 15.4399 43.8907 14.8879C43.8707 14.3333 43.8494 13.7773 43.8494 13.7773Z" fill="white"/>
    <path d="M54.9333 7.63333C54.9333 7.63333 55.392 7.93734 55.852 8.24001C56.3067 8.55334 56.7627 8.86667 56.7627 8.86667L58.8814 8.13467C58.8814 8.13467 58.6987 8.65868 58.516 9.18268C58.3414 9.70268 58.1667 10.2214 58.1667 10.2214L59.488 11.9747C59.488 11.9747 58.9533 11.9613 58.4187 11.948C58.1467 11.9373 57.8827 11.9467 57.6827 11.952C57.484 11.956 57.3494 11.96 57.3494 11.96L56.2347 13.7773L55.4387 11.7413C55.4387 11.7413 54.9013 11.6 54.3667 11.4854C53.8293 11.3747 53.2933 11.264 53.2933 11.264C53.2933 11.264 53.7134 10.8933 54.1467 10.5373C54.588 10.192 55.0293 9.84668 55.0293 9.84668C55.0293 9.84668 55.0013 9.29601 54.9747 8.74401C54.9533 8.18934 54.9333 7.63333 54.9333 7.63333Z" fill="white"/>
    <path d="M67.1827 4.56134C67.1827 4.56134 67.6427 4.86532 68.1013 5.16798C68.556 5.48132 69.012 5.79468 69.012 5.79468L71.132 5.06268C71.132 5.06268 70.948 5.58666 70.7667 6.11066C70.592 6.62933 70.4173 7.14933 70.4173 7.14933L71.7373 8.90132C71.7373 8.90132 71.204 8.88933 70.668 8.87599C70.396 8.86533 70.1333 8.87466 69.9333 8.88C69.7333 8.884 69.6 8.88667 69.6 8.88667L68.4853 10.7053L67.6893 8.66932C67.6893 8.66932 67.152 8.528 66.616 8.412C66.08 8.30133 65.544 8.19201 65.544 8.19201C65.544 8.19201 65.964 7.81998 66.396 7.46532C66.8373 7.11998 67.2787 6.77466 67.2787 6.77466C67.2787 6.77466 67.252 6.22399 67.224 5.67199C67.204 5.11599 67.1827 4.56134 67.1827 4.56134Z" fill="white"/>
    <path d="M80.2667 4.56134C80.2667 4.56134 80.7253 4.86532 81.1853 5.16798C81.64 5.48132 82.096 5.79468 82.096 5.79468L84.2147 5.06268C84.2147 5.06268 84.032 5.58666 83.8493 6.11066C83.6747 6.62933 83.5 7.14933 83.5 7.14933L84.8213 8.90132C84.8213 8.90132 84.2866 8.88933 83.752 8.87599C83.48 8.86533 83.216 8.87466 83.016 8.88C82.8173 8.884 82.6827 8.88667 82.6827 8.88667L81.568 10.7053L80.772 8.66932C80.772 8.66932 80.2347 8.528 79.7 8.412C79.1627 8.30133 78.6266 8.19201 78.6266 8.19201C78.6266 8.19201 79.0467 7.81998 79.48 7.46532C79.9213 7.11998 80.3627 6.77466 80.3627 6.77466C80.3627 6.77466 80.3347 6.22399 80.308 5.67199C80.2867 5.11599 80.2667 4.56134 80.2667 4.56134Z" fill="white"/>
    <path d="M92.4333 7.51737C92.4333 7.51737 92.892 7.82137 93.352 8.12537C93.8067 8.43737 94.2627 8.7507 94.2627 8.7507L96.3814 8.0187C96.3814 8.0187 96.1987 8.54268 96.016 9.06668C95.8414 9.58668 95.6667 10.1054 95.6667 10.1054L96.988 11.8587C96.988 11.8587 96.4533 11.8453 95.9187 11.832C95.6467 11.8227 95.3827 11.8307 95.1827 11.836C94.984 11.8414 94.8494 11.844 94.8494 11.844L93.7347 13.6614L92.9387 11.6267C92.9387 11.6267 92.4013 11.484 91.8667 11.3694C91.3293 11.2587 90.7933 11.148 90.7933 11.148C90.7933 11.148 91.2134 10.7774 91.6467 10.4214C92.088 10.076 92.5293 9.73068 92.5293 9.73068C92.5293 9.73068 92.5013 9.18004 92.4747 8.62804C92.4533 8.07338 92.4333 7.51737 92.4333 7.51737Z" fill="white"/>
    <path d="M107.139 13.6614C107.139 13.6614 107.12 14.2187 107.101 14.7747C107.075 15.3267 107.048 15.88 107.048 15.88C107.048 15.88 107.489 16.224 107.933 16.5694C108.156 16.7374 108.369 16.9201 108.527 17.0587C108.687 17.1961 108.792 17.2881 108.792 17.2881C108.792 17.2881 108.256 17.4 107.719 17.512C107.183 17.644 106.645 17.7774 106.645 17.7774L105.857 19.8174L104.739 17.9974C104.739 17.9974 104.209 17.9747 103.667 17.9961C103.132 18.0081 102.599 18.0227 102.599 18.0227L103.912 16.2654C103.912 16.2654 103.736 15.7454 103.561 15.2267C103.377 14.7014 103.192 14.1774 103.192 14.1774L105.312 14.908C105.312 14.908 105.768 14.5894 106.224 14.2707C106.681 13.9667 107.139 13.6614 107.139 13.6614Z" fill="white"/>
    <path d="M117.655 20.9734C117.655 20.9734 117.527 21.5121 117.397 22.0508C117.263 22.5854 117.128 23.1188 117.128 23.1188C117.128 23.1188 117.219 23.2241 117.357 23.3828C117.493 23.5428 117.683 23.7494 117.853 23.9734C118.201 24.4134 118.547 24.8534 118.547 24.8534C118.547 24.8534 117.997 24.8574 117.447 24.8628C117.176 24.8681 116.904 24.8734 116.7 24.8774C116.492 24.8868 116.356 24.8921 116.356 24.8921L115.171 26.7361C115.171 26.7361 115.133 26.6054 115.063 26.4214C114.993 26.2348 114.901 25.9868 114.811 25.7401C114.621 25.2388 114.433 24.7374 114.433 24.7374C114.433 24.7374 113.912 24.6228 113.391 24.5094C112.865 24.4081 112.336 24.3241 112.336 24.3241L113.98 22.8654C113.98 22.8654 113.909 22.3228 113.839 21.7814C113.763 21.2348 113.684 20.6854 113.684 20.6854C113.684 20.6854 114.168 20.9668 114.653 21.2468C114.896 21.3881 115.14 21.5281 115.323 21.6347C115.505 21.7387 115.623 21.8161 115.623 21.8161C115.623 21.8161 116.128 21.6028 116.633 21.3894C117.144 21.1801 117.655 20.9734 117.655 20.9734Z" fill="white"/>
    <path d="M126.495 30.2359C126.495 30.2359 126.263 30.7373 126.031 31.2386C125.793 31.7333 125.556 32.2266 125.556 32.2266C125.556 32.2266 125.632 32.3453 125.725 32.5346C125.823 32.7213 125.952 32.972 126.081 33.2213C126.337 33.7186 126.596 34.216 126.596 34.216C126.596 34.216 126.052 34.1119 125.508 34.0079C124.972 33.9133 124.435 33.8186 124.435 33.8186L122.899 35.3906C122.899 35.3906 122.843 34.8573 122.763 34.3306C122.672 33.8053 122.584 33.2786 122.584 33.2786C122.584 33.2786 122.093 33.0666 121.601 32.8546C121.357 32.7506 121.113 32.6479 120.932 32.5706C120.749 32.4933 120.621 32.4493 120.621 32.4493L122.52 31.3506C122.52 31.3506 122.568 30.8066 122.6 30.2613C122.629 29.712 122.66 29.1626 122.66 29.1626C122.66 29.1626 123.083 29.5306 123.505 29.8986C123.721 30.0799 123.924 30.2733 124.075 30.42C124.225 30.5653 124.327 30.6613 124.327 30.6613C124.327 30.6613 124.867 30.5519 125.407 30.4426C125.951 30.3399 126.495 30.2359 126.495 30.2359Z" fill="white"/>
    <path d="M139.353 96.532V90.2893H144.463V96.532H139.353ZM126.08 96.532V90.2893H131.191V96.532H126.08ZM112.807 96.532V90.2893H117.917V96.532H112.807ZM99.5346 96.532V90.2893H104.644V96.532H99.5346ZM86.2613 96.532V90.2893H91.3706V96.532H86.2613ZM72.988 96.532V90.2893H78.0973V96.532H72.988ZM59.7133 96.532V90.2893H64.824V96.532H59.7133ZM46.44 96.532V90.2893H51.5506V96.532H46.44ZM33.168 96.532V90.2893H38.2773V96.532H33.168ZM19.8946 96.532V90.2893H25.004V96.532H19.8946ZM6.62129 96.532V90.2893H11.7306V96.532H6.62129ZM27.652 49.6826H123.433V87.74H27.652V49.6826ZM139.353 47.1346V40.8906H144.463V47.1346H139.353ZM126.08 47.1346V40.8906H131.191V47.1346H126.08ZM112.807 47.1346V40.8906H117.917V47.1346H112.807ZM99.5346 47.1346V40.8906H104.644V47.1346H99.5346ZM86.2613 47.1346V40.8906H91.3706V47.1346H86.2613ZM72.988 47.1346V40.8906H78.0973V47.1346H72.988ZM59.7133 47.1346V40.8906H64.824V47.1346H59.7133ZM46.44 47.1346V40.8906H51.5506V47.1346H46.44ZM33.168 47.1346V40.8906H38.2773V47.1346H33.168ZM19.8946 47.1346V40.8906H25.004V47.1346H19.8946ZM6.62129 47.1346V40.8906H11.7306V47.1346H6.62129ZM150.489 87.74H128.36V49.6826H150.489V38.3413H0.594635V49.6826H22.724V87.74H0.594635V99.0813H150.489V87.74Z" fill="#3B3A39"/>
    <path d="M150.489 88.4973H0.594635V48.9253H150.489V88.4973Z" fill="#3B3A39"/>
    <path d="M146.865 87.5774H4.21997V49.8454H146.865V87.5774Z" fill="#C2B280"/>
    <g filter="url(#filter0_d_4_290)">
        <path d="M35.064 79V61.72H37.032V79H35.064ZM36.072 71.584V69.856H45.384V71.584H36.072ZM36.072 63.448V61.72H46.056V63.448H36.072ZM49.2515 79V61.72H51.2195V79H49.2515ZM55.0953 79V61.72H57.0633V79H55.0953ZM56.1033 79V77.272H65.9433V79H56.1033ZM68.9546 79V61.72H71.9786L78.2186 78.376H77.3066L83.4986 61.72H86.5706V79H84.6266V62.752H84.8906L78.8666 79H76.5146L70.4906 62.896H70.7546V79H68.9546ZM90.4546 79V61.72H92.4226V79H90.4546ZM91.4626 79V77.272H102.023V79H91.4626ZM91.4626 70.864V69.136H101.159V70.864H91.4626ZM91.4626 63.448V61.72H101.831V63.448H91.4626ZM104.736 79V61.72H111.12C112.352 61.72 113.4 61.92 114.264 62.32C115.128 62.72 115.784 63.28 116.232 64C116.696 64.704 116.928 65.544 116.928 66.52C116.928 67.496 116.696 68.352 116.232 69.088C115.784 69.808 115.128 70.376 114.264 70.792C113.4 71.192 112.352 71.392 111.12 71.392H106.176V69.664H111.048C112.328 69.664 113.296 69.384 113.952 68.824C114.624 68.264 114.96 67.496 114.96 66.52C114.96 65.56 114.632 64.808 113.976 64.264C113.32 63.72 112.344 63.448 111.048 63.448H106.704V79H104.736ZM114.864 79L105.672 70.432H108.36L117.84 79H114.864Z" fill="white"/>
    </g>
    <defs>
        <filter id="filter0_d_4_290" x="31.064" y="61.72" width="90.7759" height="25.28" filterUnits="userSpaceOnUse" color-interpolation-filters="sRGB">
            <feFlood flood-opacity="0" result="BackgroundImageFix"/>
            <feColorMatrix in="SourceAlpha" type="matrix" values="0 0 0 0 0 0 0 0 0 0 0 0 0 0 0 0 0 0 127 0" result="hardAlpha"/>
            <feOffset dy="4"/>
            <feGaussianBlur stdDeviation="2"/>
            <feComposite in2="hardAlpha" operator="out"/>
            <feColorMatrix type="matrix" values="0 0 0 0 0 0 0 0 0 0 0 0 0 0 0 0 0 0 0.25 0"/>
            <feBlend mode="normal" in2="BackgroundImageFix" result="effect1_dropShadow_4_290"/>
            <feBlend mode="normal" in="SourceGraphic" in2="effect1_dropShadow_4_290" result="shape"/>
        </filter>
    </defs>
</svg>
